<svg xmlns="http://www.w3.org/2000/svg" version="1.0" width="100.000000pt" height="100.000000pt" viewBox="0 0 100.000000 100.000000" preserveAspectRatio="xMidYMid meet">
<metadata>
Created by potrace 1.10, written by Peter Selinger 2001-2011
</metadata>
<g transform="translate(0.000000,100.000000) scale(0.100000,-0.100000)" fill="#000000" stroke="none">
<path d="M305 969 c-11 -6 -29 -20 -41 -31 -18 -16 -25 -17 -47 -7 -37 17 -89 3 -123 -32 -24 -25 -29 -39 -29 -79 0 -32 6 -54 17 -67 16 -18 18 -48 18 -327 0 -331 3 -353 52 -386 36 -23 455 -28 514 -5 53 20 74 60 74 143 0 57 1 60 28 65 72 16 130 85 158 189 40 150 -15 239 -138 225 l-48 -6 0 31 c0 21 9 42 28 61 22 23 27 38 27 77 0 40 -5 54 -29 79 -38 39 -87 49 -133 27 -31 -15 -36 -15 -65 0 -20 10 -44 14 -66 10 -26 -4 -43 0 -64 16 -35 24 -105 33 -133 17z m98 -40 c12 -6 29 -20 38 -31 13 -17 20 -18 37 -9 31 17 66 13 96 -10 l26 -20 26 20 c55 43 134 8 134 -59 0 -40 -39 -80 -78 -80 -16 0 -42 10 -57 22 l-28 22 -30 -34 c-28 -31 -29 -37 -24 -94 3 -34 14 -83 23 -109 13 -38 14 -54 6 -73 -21 -45 -95 -40 -107 9 -3 12 1 42 10 67 9 25 19 72 22 105 5 55 3 63 -21 92 l-27 32 -32 -19 c-48 -30 -107 -22 -130 16 -12 20 -27 17 -53 -11 -47 -51 -134 -15 -134 55 0 62 77 102 126 65 26 -20 42 -19 49 5 13 40 84 62 128 39z m-43 -229 c14 0 37 6 52 14 44 23 59 -15 42 -103 l-6 -31 -154 0 -154 0 0 63 0 63 33 -3 c19 -2 44 4 62 15 29 18 31 18 65 0 19 -10 46 -18 60 -18z m320 0 c18 0 20 -6 20 -60 l0 -60 -54 0 c-52 0 -54 1 -60 31 -18 89 -1 127 45 103 15 -7 37 -14 49 -14z m197 -106 c24 -24 25 -30 20 -90 -11 -112 -65 -203 -129 -219 l-28 -7 0 165 c0 184 -4 173 73 176 28 1 44 -5 64 -25z m-455 -79 c-10 -55 41 -115 98 -115 57 0 108 60 98 115 -5 24 -3 25 38 25 l44 0 0 -214 c0 -196 -2 -216 -19 -237 -19 -24 -21 -24 -255 -27 l-236 -3 -25 25 -25 25 0 216 0 215 144 0 143 0 -5 -25z"/>
</g>
</svg>