<svg xmlns="http://www.w3.org/2000/svg" viewBox="0 0 473 325"><defs><style>.cls-1{fill:#fff;}.cls-2{fill:none;stroke:#000;stroke-miterlimit:10;stroke-width:2px;}</style></defs><g id="Layer_1" data-name="Layer 1"><path class="cls-1" d="M724,703V378h473V703Zm289.19-92.61c-.23,4.11.51,7.68-.76,10.26-4.52,9.22.44,16,5.12,22.81a11.7,11.7,0,0,0,5.26,4.3c6.68,2.41,13.46,1.3,20-.94,1.41-.49,3.07-3.18,2.93-4.7-.38-4.1-6.22-9-10.39-9-2.84,0-3.83-1.05-3.73-3.82.22-6.82.08-13.66.5-20.47a12.78,12.78,0,0,1,5.78-10.3c11.49-8.22,23-16.71,30.72-28.87,2.65-4.18,4.85-9.32,5.19-14.16.75-10.78.43-21.66.1-32.48-.25-7.84,2.61-14.52,6.17-21.44,1.22.72,2.14,1.38,3.15,1.85,7,3.27,10.48,1,10.41-6.7,0-3.65-.1-7.31.11-10.95.07-1.38.5-3.6,1.37-3.95a138.79,138.79,0,0,1,18.16-6.48c6.66-1.68,13.64-2.05,20.36-3.56,9-2,11.75-11.15,17.59-16.79.49-.48,0-2.93-.84-3.61a12.47,12.47,0,0,0-5.24-2.71c-9.22-2-18.57-3.56-27.71-5.9-3.63-.93-7.68-2.77-10-5.49-3.83-4.4-8.13-7.3-13.69-8.26-12.83-2.22-25.42-1.75-37.78,3.05-5.59,2.18-7.92,6.13-8.84,11.56-.26,1.57-.34,3.49-1.28,4.56-9.71,11.08-15.09,24.64-21.41,37.6-2.8,5.73-6.38,10.56-12.12,12.6-10.76,3.83-21.79,6.94-32.82,9.93-7.17,1.93-14.52,4.17-21.84,4.37-9.75.26-19.53-1.51-29.32-2.06-15.92-.9-31.87-2.25-47.79-2-15.43.2-30.81,2.57-46.25,3.18-14.33.57-27,5.78-38.68,13.15-12.72,8-18.44,21.61-23.18,35.21-5.86,16.81-14.59,31.25-29.88,41.14-2.05,1.32-3.5,3.57-5.37,5.54,1.09.64,1.36,1,1.64,1a14.39,14.39,0,0,0,2.45-.21c8.22-1.38,14.81-5.76,20.6-11.45,12.48-12.27,20.75-27.12,26.3-43.6,2.12-6.31,5.3-11.88,11.53-16.18a62,62,0,0,0,3.83,35c3.71,8.87,3.78,17-.21,25.43-2.2,4.68-3.21,9.44-.48,14.31a15.14,15.14,0,0,0,2,3.42c6.07,6.06,8.38,13.74,10.1,21.83,1.33,6.32,5.71,10,11.29,9.78,4.46-.15,8.9-.73,13.35-1.14,3-.27,3.93-1.57,2.9-4.68-1.63-4.88-4.27-8.42-9.32-10.27a8.8,8.8,0,0,1-4.78-4.36c-1.61-4.16-2.39-8.64-3.5-13-1.25-4.9.15-8.28,5.13-10.29,12.72-5.12,24.58-11.06,32.48-23.45,4.3-6.77,8.22-6.63,15.32-2.28,8.16,5,16.64,9,26.13,10.66,10,1.78,20.1,3,29.83,5.68C945,596,955.79,601,967.11,604.15,981.82,608.22,996.17,615.64,1013.19,610.39Z" transform="translate(-724 -378)"/><path d="M1013.19,610.39c-17,5.25-31.37-2.17-46.08-6.24C955.79,601,945,596,933.69,592.9c-9.73-2.68-19.86-3.9-29.83-5.68-9.49-1.69-18-5.65-26.13-10.66-7.1-4.35-11-4.49-15.32,2.28-7.9,12.39-19.76,18.33-32.48,23.45-5,2-6.38,5.39-5.13,10.29,1.11,4.36,1.89,8.84,3.5,13a8.8,8.8,0,0,0,4.78,4.36c5,1.85,7.69,5.39,9.32,10.27,1,3.11.12,4.41-2.9,4.68-4.45.41-8.89,1-13.35,1.14-5.58.19-10-3.46-11.29-9.78-1.72-8.09-4-15.77-10.1-21.83a15.14,15.14,0,0,1-2-3.42c-2.73-4.87-1.72-9.63.48-14.31,4-8.46,3.92-16.56.21-25.43a62,62,0,0,1-3.83-35c-6.23,4.3-9.41,9.87-11.53,16.18-5.55,16.48-13.82,31.33-26.3,43.6-5.79,5.69-12.38,10.07-20.6,11.45a14.39,14.39,0,0,1-2.45.21c-.28,0-.55-.31-1.64-1,1.87-2,3.32-4.22,5.37-5.54,15.29-9.89,24-24.33,29.88-41.14,4.74-13.6,10.46-27.17,23.18-35.21,11.65-7.37,24.35-12.58,38.68-13.15,15.44-.61,30.82-3,46.25-3.18,15.92-.21,31.87,1.14,47.79,2,9.79.55,19.57,2.32,29.32,2.06,7.32-.2,14.67-2.44,21.84-4.37,11-3,22.06-6.1,32.82-9.93,5.74-2,9.32-6.87,12.12-12.6,6.32-13,11.7-26.52,21.41-37.6.94-1.07,1-3,1.28-4.56.92-5.43,3.25-9.38,8.84-11.56,12.36-4.8,24.95-5.27,37.78-3.05,5.56,1,9.86,3.86,13.69,8.26,2.36,2.72,6.41,4.56,10,5.49,9.14,2.34,18.49,3.86,27.71,5.9a12.47,12.47,0,0,1,5.24,2.71c.79.68,1.33,3.13.84,3.61-5.84,5.64-8.55,14.76-17.59,16.79-6.72,1.51-13.7,1.88-20.36,3.56a138.79,138.79,0,0,0-18.16,6.48c-.87.35-1.3,2.57-1.37,3.95-.21,3.64-.15,7.3-.11,10.95.07,7.7-3.42,10-10.41,6.7-1-.47-1.93-1.13-3.15-1.85-3.56,6.92-6.42,13.6-6.17,21.44.33,10.82.65,21.7-.1,32.48-.34,4.84-2.54,10-5.19,14.16-7.73,12.16-19.23,20.65-30.72,28.87a12.78,12.78,0,0,0-5.78,10.3c-.42,6.81-.28,13.65-.5,20.47-.1,2.77.89,3.8,3.73,3.82,4.17,0,10,4.93,10.39,9,.14,1.52-1.52,4.21-2.93,4.7-6.49,2.24-13.27,3.35-20,.94a11.7,11.7,0,0,1-5.26-4.3c-4.68-6.84-9.64-13.59-5.12-22.81C1013.7,618.07,1013,614.5,1013.19,610.39Z" transform="translate(-724 -378)"/><ellipse cx="115.5" cy="176" rx="22.5" ry="62"/><ellipse cx="275.5" cy="176" rx="22.5" ry="62"/><rect x="116" y="114" width="160" height="124"/><ellipse class="cls-1" cx="134.5" cy="242" rx="13.5" ry="12"/><ellipse class="cls-1" cx="173.5" cy="242" rx="13.5" ry="12"/><ellipse class="cls-1" cx="215.5" cy="242" rx="13.5" ry="12"/><ellipse class="cls-1" cx="257.5" cy="242" rx="13.5" ry="12"/><line class="cls-2" x1="121" y1="237" x2="271" y2="237"/><path class="cls-1" d="M943,493" transform="translate(-724 -378)"/><ellipse class="cls-1" cx="134.5" cy="110" rx="13.5" ry="12"/><ellipse class="cls-1" cx="173.5" cy="110" rx="13.5" ry="12"/><ellipse class="cls-1" cx="215.5" cy="110" rx="13.5" ry="12"/><ellipse class="cls-1" cx="257.5" cy="110" rx="13.5" ry="12"/></g><g id="Layer_2" data-name="Layer 2"><path d="M918,474c17.89,0,33,8.47,33,18.5S935.89,511,918,511s-33-8.47-33-18.5S900.11,474,918,474m0-3c-19.88,0-36,9.63-36,21.5S898.12,514,918,514s36-9.63,36-21.5S937.88,471,918,471Z" transform="translate(-724 -378)"/></g><g id="Layer_3" data-name="Layer 3"><line class="cls-2" x1="121" y1="115" x2="271" y2="115"/></g></svg>