<svg xmlns="http://www.w3.org/2000/svg" viewBox="0 0 467.81 250.23">
  <title>doggo</title>
  <g id="Layer_1" data-name="Layer 1">
    <ellipse cx="117.82" cy="142.68" rx="25.31" ry="69.73" style="fill:#ede8e8;stroke:#ede8e8;stroke-miterlimit:10" />
    <ellipse cx="297.77" cy="142.68" rx="25.31" ry="69.73" style="fill:#ede8e8;stroke:#ede8e8;stroke-miterlimit:10" />
    <line x1="124" y1="211.29" x2="292.71" y2="211.29" style="fill:#ede8e8;stroke:#ede8e8;stroke-miterlimit:10;stroke-width:2px" />
    <path d="M249.32,134.81" transform="translate(-15.09 -60.73)" style="fill:#ede8e8;stroke:#ede8e8;stroke-miterlimit:10" />
    <path d="M306.92,133.68c-2.09,5.24-7.69,9-14.3,9s-12.22-3.76-14.3-9H259.68c-2.08,5.24-7.69,9-14.3,9s-12.21-3.76-14.3-9H212.44c-2.08,5.24-7.69,9-14.3,9s-12.21-3.76-14.3-9H168.58c-2.09,5.24-7.69,9-14.3,9s-12.22-3.76-14.3-9h-6.51V273.15H140c2.08-5.24,7.69-9,14.3-9s12.21,3.76,14.3,9h15.26c2.09-5.24,7.69-9,14.3-9s12.22,3.76,14.3,9h18.64c2.09-5.24,7.69-9,14.3-9s12.22,3.76,14.3,9h18.64c2.08-5.24,7.69-9,14.3-9s12.21,3.76,14.3,9h6.51V133.68Z" transform="translate(-15.09 -60.73)" style="fill:#ede8e8;stroke:#ede8e8;stroke-miterlimit:10" />
    <path d="M326.8,266.87c-19.17,5.91-35.33-2.44-51.9-7-12.74-3.52-24.89-9.17-37.63-12.67-11-3-22.37-4.39-33.6-6.39-10.68-1.9-20.24-6.37-29.43-12-8-4.89-12.4-5.05-17.25,2.57-8.88,14-22.25,20.64-36.58,26.41-5.6,2.25-7.17,6.06-5.77,11.58,1.25,4.9,2.13,9.94,3.94,14.63a9.9,9.9,0,0,0,5.39,4.91c5.69,2.08,8.66,6.06,10.49,11.56,1.17,3.5.14,5-3.26,5.27-5,.46-10,1.11-15,1.28-6.29.21-11.21-3.89-12.72-11-1.92-9.12-4.53-17.76-11.36-24.58-1-1-1.53-2.55-2.26-3.85-3.08-5.48-1.94-10.85.55-16.12,4.49-9.52,4.41-18.63.23-28.62a69.69,69.69,0,0,1-4.32-39.35c-7,4.84-10.59,11.1-13,18.21-6.25,18.55-15.56,35.26-29.62,49.08-6.52,6.4-13.94,11.33-23.19,12.89a17,17,0,0,1-2.76.23c-.31,0-.63-.34-1.85-1.07,2.1-2.21,3.74-4.74,6-6.23C39.14,245.45,49,229.2,55.58,210.27c5.34-15.31,11.78-30.59,26.1-39.64,13.12-8.29,27.42-14.17,43.56-14.81,17.38-.69,34.71-3.35,52.08-3.58,17.93-.23,35.89,1.29,53.82,2.3,11,.62,22,2.62,33,2.32,8.24-.23,16.52-2.74,24.6-4.92,12.42-3.36,24.84-6.87,37-11.18,6.46-2.29,10.49-7.73,13.64-14.18,7.13-14.59,13.18-29.85,24.11-42.33,1.06-1.21,1.15-3.37,1.45-5.13,1-6.11,3.65-10.57,9.95-13,13.92-5.42,28.1-5.93,42.55-3.44,6.26,1.08,11.1,4.35,15.41,9.3,2.67,3.06,7.23,5.13,11.31,6.18,10.29,2.63,20.82,4.34,31.2,6.64a14.05,14.05,0,0,1,5.91,3c.89.77,1.5,3.53.94,4.06-6.57,6.36-9.63,16.62-19.81,18.91-7.56,1.7-15.42,2.11-22.93,4-7,1.76-13.74,4.57-20.44,7.3-1,.4-1.46,2.89-1.55,4.45-.23,4.1-.16,8.21-.13,12.32.08,8.67-3.84,11.23-11.72,7.54-1.13-.53-2.17-1.26-3.55-2.08-4,7.79-7.22,15.32-6.94,24.14.38,12.18.73,24.43-.11,36.56-.39,5.46-2.86,11.24-5.85,15.94-8.7,13.69-21.65,23.25-34.6,32.5a14.39,14.39,0,0,0-6.5,11.6c-.48,7.66-.31,15.37-.57,23.05-.1,3.11,1,4.27,4.21,4.3,4.69,0,11.27,5.54,11.7,10.15.15,1.72-1.71,4.75-3.31,5.3-7.3,2.52-14.94,3.78-22.46,1.06a13.26,13.26,0,0,1-5.92-4.84c-5.27-7.7-10.86-15.31-5.77-25.68C327.37,275.52,326.53,271.5,326.8,266.87Z" transform="translate(-15.09 -60.73)" />
    <path d="M326.8,266.87c-19.17,5.91-35.33-2.44-51.9-7-12.74-3.52-24.89-9.17-37.63-12.67-11-3-22.37-4.39-33.6-6.39-10.68-1.9-20.24-6.37-29.43-12-8-4.89-12.4-5.05-17.25,2.57-8.88,14-22.25,20.64-36.58,26.41-5.6,2.25-7.17,6.06-5.77,11.58,1.25,4.9,2.13,9.94,3.94,14.63a9.9,9.9,0,0,0,5.39,4.91c5.69,2.08,8.66,6.06,10.49,11.56,1.17,3.5.14,5-3.26,5.27-5,.46-10,1.11-15,1.28-6.29.21-11.21-3.89-12.72-11-1.92-9.12-4.53-17.76-11.36-24.58-1-1-1.53-2.55-2.26-3.85-3.08-5.48-1.94-10.85.55-16.12,4.49-9.52,4.41-18.63.23-28.62a69.69,69.69,0,0,1-4.32-39.35c-7,4.84-10.59,11.1-13,18.21-6.25,18.55-15.56,35.26-29.62,49.08-6.52,6.4-13.94,11.33-23.19,12.89a17,17,0,0,1-2.76.23c-.31,0-.63-.34-1.85-1.07,2.1-2.21,3.74-4.74,6-6.23C39.14,245.45,49,229.2,55.58,210.27c5.34-15.31,11.78-30.59,26.1-39.64,13.12-8.29,27.42-14.17,43.56-14.81,17.38-.69,34.71-3.35,52.08-3.58,17.93-.23,35.89,1.29,53.82,2.3,11,.62,22,2.62,33,2.32,8.24-.23,16.52-2.74,24.6-4.92,12.42-3.36,24.84-6.87,37-11.18,6.46-2.29,10.49-7.73,13.64-14.18,7.13-14.59,13.18-29.85,24.11-42.33,1.06-1.21,1.15-3.37,1.45-5.13,1-6.11,3.65-10.57,9.95-13,13.92-5.42,28.1-5.93,42.55-3.44,6.26,1.08,11.1,4.35,15.41,9.3,2.67,3.06,7.23,5.13,11.31,6.18,10.29,2.63,20.82,4.34,31.2,6.64a14.05,14.05,0,0,1,5.91,3c.89.77,1.5,3.53.94,4.06-6.57,6.36-9.63,16.62-19.81,18.91-7.56,1.7-15.42,2.11-22.93,4-7,1.76-13.74,4.57-20.44,7.3-1,.4-1.46,2.89-1.55,4.45-.23,4.1-.16,8.21-.13,12.32.08,8.67-3.84,11.23-11.72,7.54-1.13-.53-2.17-1.26-3.55-2.08-4,7.79-7.22,15.32-6.94,24.14.38,12.18.73,24.43-.11,36.56-.39,5.46-2.86,11.24-5.85,15.94-8.7,13.69-21.65,23.25-34.6,32.5a14.39,14.39,0,0,0-6.5,11.6c-.48,7.66-.31,15.37-.57,23.05-.1,3.11,1,4.27,4.21,4.3,4.69,0,11.27,5.54,11.7,10.15.15,1.72-1.71,4.75-3.31,5.3-7.3,2.52-14.94,3.78-22.46,1.06a13.26,13.26,0,0,1-5.92-4.84c-5.27-7.7-10.86-15.31-5.77-25.68C327.37,275.52,326.53,271.5,326.8,266.87Z" transform="translate(-15.09 -60.73)" style="fill:#ede8e8" />
    <path d="M326.8,266.87c-19.17,5.91-35.33-2.44-51.9-7-12.74-3.52-24.89-9.17-37.63-12.67-11-3-22.37-4.39-33.6-6.39-10.68-1.9-20.24-6.37-29.43-12-8-4.89-12.4-5.05-17.25,2.57-8.88,14-22.25,20.64-36.58,26.41-5.6,2.25-7.17,6.06-5.77,11.58,1.25,4.9,2.13,9.94,3.94,14.63a9.9,9.9,0,0,0,5.39,4.91c5.69,2.08,8.66,6.06,10.49,11.56,1.17,3.5.14,5-3.26,5.27-5,.46-10,1.11-15,1.28-6.29.21-11.21-3.89-12.72-11-1.92-9.12-4.53-17.76-11.36-24.58-1-1-1.53-2.55-2.26-3.85-3.08-5.48-1.94-10.85.55-16.12,4.49-9.52,4.41-18.63.23-28.62a69.69,69.69,0,0,1-4.32-39.35c-7,4.84-10.59,11.1-13,18.21-6.25,18.55-15.56,35.26-29.62,49.08-6.52,6.4-13.94,11.33-23.19,12.89a17,17,0,0,1-2.76.23c-.31,0-.63-.34-1.85-1.07,2.1-2.21,3.74-4.74,6-6.23C39.14,245.45,49,229.2,55.58,210.27c5.34-15.31,11.78-30.59,26.1-39.64,13.12-8.29,27.42-14.17,43.56-14.81,17.38-.69,34.71-3.35,52.08-3.58,17.93-.23,35.89,1.29,53.82,2.3,11,.62,22,2.62,33,2.32,8.24-.23,16.52-2.74,24.6-4.92,12.42-3.36,24.84-6.87,37-11.18,6.46-2.29,10.49-7.73,13.64-14.18,7.13-14.59,13.18-29.85,24.11-42.33,1.06-1.21,1.15-3.37,1.45-5.13,1-6.11,3.65-10.57,9.95-13,13.92-5.42,28.1-5.93,42.55-3.44,6.26,1.08,11.1,4.35,15.41,9.3,2.67,3.06,7.23,5.13,11.31,6.18,10.29,2.63,20.82,4.34,31.2,6.64a14.05,14.05,0,0,1,5.91,3c.89.77,1.5,3.53.94,4.06-6.57,6.36-9.63,16.62-19.81,18.91-7.56,1.7-15.42,2.11-22.93,4-7,1.76-13.74,4.57-20.44,7.3-1,.4-1.46,2.89-1.55,4.45-.23,4.1-.16,8.21-.13,12.32.08,8.67-3.84,11.23-11.72,7.54-1.13-.53-2.17-1.26-3.55-2.08-4,7.79-7.22,15.32-6.94,24.14.38,12.18.73,24.43-.11,36.56-.39,5.46-2.86,11.24-5.85,15.94-8.7,13.69-21.65,23.25-34.6,32.5a14.39,14.39,0,0,0-6.5,11.6c-.48,7.66-.31,15.37-.57,23.05-.1,3.11,1,4.27,4.21,4.3,4.69,0,11.27,5.54,11.7,10.15.15,1.72-1.71,4.75-3.31,5.3-7.3,2.52-14.94,3.78-22.46,1.06a13.26,13.26,0,0,1-5.92-4.84c-5.27-7.7-10.86-15.31-5.77-25.68C327.37,275.52,326.53,271.5,326.8,266.87Z" transform="translate(-15.09 -60.73)" style="fill:none;stroke:#ede8e8;stroke-miterlimit:10" />
  </g>
  <g id="Layer_2" data-name="Layer 2">
    <ellipse cx="206.11" cy="73.51" rx="38.99" ry="22.68" style="fill:#ede8e8" />
    <path d="M221.2,113.06c20.32,0,37.49,9.7,37.49,21.18s-17.17,21.18-37.49,21.18-37.49-9.7-37.49-21.18,17.17-21.18,37.49-21.18m0-3c-22.36,0-40.49,10.83-40.49,24.18s18.13,24.18,40.49,24.18,40.49-10.82,40.49-24.18-18.13-24.18-40.49-24.18Z" transform="translate(-15.09 -60.73)" style="fill:#ede8e8" />
  </g>
  <g id="Layer_3" data-name="Layer 3">
    <line x1="124" y1="74.07" x2="292.71" y2="74.07" style="fill:none;stroke:#ede8e8;stroke-miterlimit:10;stroke-width:2px" />
    <line x1="124" y1="74.07" x2="292.71" y2="74.07" style="fill:#ede8e8" />
  </g>
</svg>